<svg xmlns="http://www.w3.org/2000/svg" xmlns:xlink="http://www.w3.org/1999/xlink" version="1.1" x="0px" y="0px" width="16px" height="16px" viewBox="203.257 203.132 16 16" enable-background="new 203.257 203.132 16 16" xml:space="preserve"><g><path fill="#CCCCCC" d="M214.846 209.151l-5.57 5.57c-0.443 0.443-1.163 0.443-1.606 0c-0.444-0.444-0.444-1.164 0-1.606 l5.569-5.57c0.443-0.443 1.163-0.443 1.6 0C215.289 208 215.3 208.7 214.8 209.151L214.846 209.151z"/></g><g><g><path fill="#CCCCCC" d="M213.372 215.979l-1.714 1.714c-1.919 1.919-5.042 1.919-6.962 0c-1.919-1.92-1.919-5.043 0-6.962 l1.714-1.713c0.444-0.443 1.164-0.443 1.6 0c0.443 0.4 0.4 1.2 0 1.606l-1.714 1.716c-1.034 1.033-1.034 2.7 0 3.7 c1.033 1 2.7 1 3.7 0l1.713-1.713c0.443-0.444 1.163-0.444 1.6 0C213.815 214.8 213.8 215.5 213.4 216 L213.372 215.979z"/></g><g><path fill="#CCCCCC" d="M217.816 211.534l-1.686 1.688c-0.444 0.443-1.163 0.443-1.607 0c-0.443-0.444-0.443-1.164 0-1.607 l1.688-1.687c1.033-1.033 1.033-2.715 0-3.748c-1.035-1.033-2.716-1.033-3.749 0l-1.688 1.685c-0.443 0.443-1.163 0.443-1.606 0 c-0.444-0.444-0.444-1.163 0-1.606l1.687-1.687c1.919-1.919 5.042-1.919 7 0C219.737 206.5 219.7 209.6 217.8 211.5 L217.816 211.534z"/></g></g></svg>