<svg xmlns="http://www.w3.org/2000/svg" xmlns:xlink="http://www.w3.org/1999/xlink" version="1.1" x="0px" y="0px" width="422.514px" height="422.265px" viewBox="0 0 422.514 422.265" enable-background="new 0 0 422.514 422.265" xml:space="preserve"><g><path d="M306.009 158.931L158.931 306.009c-11.716 11.716-30.711 11.716-42.427 0c-11.715-11.715-11.715-30.711 0-42.426 l147.078-147.079c11.716-11.715 30.711-11.715 42.4 0C317.725 128.2 317.7 147.2 306 158.931z"/></g><g><g><path d="M267.118 339.243l-45.255 45.255c-50.687 50.687-133.16 50.688-183.848 0c-50.687-50.687-50.687-133.161 0-183.848 l45.255-45.255c11.716-11.716 30.711-11.716 42.4 0c11.716 11.7 11.7 30.7 0 42.427l-45.255 45.3 c-27.293 27.294-27.293 71.7 0 98.995s71.702 27.3 99 0l45.255-45.255c11.715-11.715 30.711-11.715 42.4 0 C278.834 308.5 278.8 327.5 267.1 339.243z"/></g><g><path d="M384.498 221.863l-44.548 44.548c-11.715 11.716-30.711 11.716-42.426 0c-11.716-11.716-11.716-30.711 0-42.427 l44.548-44.547c27.293-27.293 27.292-71.702 0-98.995c-27.293-27.293-71.702-27.293-98.995 0l-44.548 44.5 c-11.715 11.716-30.71 11.716-42.426 0c-11.716-11.715-11.716-30.711 0-42.426l44.548-44.548 c50.687-50.687 133.161-50.687 183.8 0C435.186 88.7 435.2 171.2 384.5 221.863z"/></g></g></svg>